<svg id="Capa_1" enable-background="new 0 0 512 512" height="512" viewBox="0 0 512 512" width="512" xmlns="http://www.w3.org/2000/svg"><g><g><path d="m500.286 502v-44.305c-11.42.315-22.941-3.885-31.657-12.6-16.636-16.562-44.292-16.628-60.92 0-16.664 16.589-44.256 16.59-60.92 0-16.823-16.823-44.097-16.823-60.92 0-16.664 16.589-44.256 16.59-60.92 0-16.823-16.823-44.097-16.823-60.92 0l-.003.003c-16.821 16.821-44.094 16.823-60.917.003l-.012-.012c-16.824-16.821-44.097-16.819-60.918.002l-.003.003c-8.411 8.411-19.436 12.617-30.46 12.617v44.289z" fill="#bedaff"/></g><g><path d="m226.27 186.283h173.214v54.08h-167.723c-18.977 0-34.359 15.382-34.359 34.359v3.753h-61.24v-2.095c0-49.761 40.347-90.097 90.108-90.097z" fill="#c6d8d8"/></g><g><path d="m446.772 186.283h53.514v54.08h-53.514z" fill="#c6d8d8"/></g><g><path d="m121.91 278.474h90.583v47.293h-90.583z" fill="#c6d8d8"/></g><g><path d="m399.483 167.197h47.293v90.583h-47.293z" fill="#c6d8d8"/></g><g><path d="m244.24 144.235h44.52v42.047h-44.52z" fill="#c6d8d8"/></g><g><path d="m61.367 36.393h57.948v129.86h-57.948z" fill="#868eaf"/></g><g><path d="m119.315 51.882h14.901c7.814 0 15.522-1.813 22.517-5.296l56.821-31.291c9.206-4.583 18.742-5.295 28.805-5.295 10.799 0 21.314 3.46 30.002 9.873l61.515 48.385c15.125 11.164 21.016 31.002 14.436 48.612-6.15 16.457-21.871 27.365-39.439 27.365h-189.558z" fill="#ffdad5"/></g><g><path d="m11.716 166.253h49.651v-129.86l-49.651-10.58z" fill="#c6d8d8"/></g><g><path d="m192.119 366.795c0 14.349-11.628 25.968-25.968 25.968s-25.968-11.618-25.968-25.968c0-6.106 2.486-11.095 4.963-16.451 3.788-8.193 7.578-16.386 11.363-24.581h19.275c3.742 8.095 7.485 16.19 11.23 24.284 2.513 5.435 5.105 10.558 5.105 16.748z" fill="#bedaff"/></g><g><path d="m500.01 447.698c-9.171.265-17.817-3.183-24.31-9.676-20.46-20.458-54.603-20.459-75.063.001-12.75 12.75-34.028 12.751-46.777-.001-20.695-20.693-54.368-20.692-75.063.001-12.75 12.75-34.027 12.75-46.777-.001-20.694-20.692-54.368-20.692-75.062 0-.024.023-.047.048-.071.071-12.887 12.814-33.791 12.807-46.668-.025-.018-.018-.035-.035-.052-.053-20.695-20.688-54.366-20.687-75.059.004-.017.018-.034.034-.051.052-6.242 6.217-14.528 9.64-23.341 9.64-5.523 0-10 4.478-10 10v44.289c0 5.522 4.477 10 10 10h488.57c5.522 0 10-4.478 10-10v-44.306c0-2.7-1.092-5.285-3.027-7.168-1.935-1.881-4.531-2.895-7.249-2.828zm-9.724 44.302h-468.57v-25.224c10.369-1.966 19.906-6.985 27.531-14.61.017-.018.034-.034.051-.052 12.884-12.833 33.799-12.832 46.684.001.019.02.038.038.057.057 20.694 20.691 54.365 20.688 75.059-.003.024-.024.048-.049.072-.073 12.903-12.828 33.835-12.806 46.708.07 20.46 20.459 54.603 20.457 75.063-.001 12.897-12.896 33.882-12.895 46.777.001 20.46 20.458 54.603 20.459 75.063-.001 12.751-12.751 34.028-12.75 46.778.001 7.821 7.821 17.935 12.968 28.728 14.799v25.035z"/><path d="m500.286 230.363h-43.51v-34.081h43.51c5.522 0 10-4.478 10-10s-4.478-10-10-10h-43.51v-9.085c0-5.522-4.478-10-10-10h-47.294c-5.522 0-10 4.478-10 10v9.085h-90.722v-22.047h10.113c21.623 0 41.237-13.609 48.806-33.864 8.083-21.627.789-46.301-17.734-60.063l-61.401-48.295c-.081-.063-.162-.125-.244-.186-10.483-7.737-22.911-11.827-35.941-11.827-11.578 0-23.231.811-33.629 6.536l-56.63 31.185c-5.535 2.723-11.715 4.161-17.884 4.161h-4.901v-5.489c0-5.522-4.477-10-10-10h-56.895l-48.62-10.36c-5.403-1.149-10.714 2.294-11.864 7.696-1.151 5.402 2.294 10.714 7.696 11.865l41.735 8.893v111.767h-39.651c-5.523 0-10 4.478-10 10s4.477 10 10 10h107.599c5.523 0 10-4.478 10-10v-12.018h104.926v22.047h-7.971c-52.538 0-95.751 40.679-99.796 92.191h-4.563c-5.523 0-10 4.478-10 10v47.293c0 5.522 4.477 10 10 10h18.958c-4.548 9.838-10.685 19.874-10.685 31.028 0 19.833 16.135 35.968 35.968 35.968s35.968-16.135 35.968-35.968c0-11.142-6.145-21.193-10.693-31.028h21.067c5.523 0 10-4.478 10-10v-47.293c0-5.522-4.477-10-10-10h-4.275c2.766-10.413 12.271-18.11 23.543-18.11h41.524c5.522 0 10-4.478 10-10s-4.478-10-10-10h-41.524c-22.339 0-40.874 16.6-43.92 38.11h-41.292c3.982-40.47 38.216-72.191 79.72-72.191h163.213v34.104s-28.922-.031-29.296-.013c-5.517.255-9.782 4.935-9.526 10.452.216 4.661 3.806 9.439 10.25 9.553.31.006 28.572.008 28.572.008v7.394c0 5.522 4.478 10 10 10h47.294c5.522 0 10-4.478 10-10v-7.417h43.51c5.522 0 10-4.478 10-10s-4.478-10.001-10.001-10.001zm-319.482 130.075c.819 2.047 1.316 4.141 1.316 6.356 0 8.805-7.163 15.968-15.968 15.968s-15.968-7.163-15.968-15.968c0-2.532.671-5.056 1.642-7.532 1.469-3.744 11.076-23.496 11.076-23.496h6.49c4.231 9.153 10.335 22.35 11.412 24.672zm21.69-44.671h-70.583v-27.293h70.583zm-93.179-159.514h-37.948v-109.86h37.948v5.489 92.354zm20-22.018v-72.353h4.901c9.254 0 19.178-2.042 27.341-6.536l56.629-31.185c7.748-3.81 15.754-4.161 24.173-4.161 8.675 0 16.952 2.708 23.946 7.832l61.389 48.286c11.32 8.729 16.346 23.618 11.251 37.252-4.524 12.106-16.034 20.334-28.881 20.819 1.998-4.35 3.121-9.181 3.121-14.273 0-11.292-5.742-22.054-15.07-28.399l-45.647-33.014c-7.575-5.617-19.318-6.204-26.835-.042l-18.203 14.924c-12.942 10.612-5.173 32.213 11.517 32.213h59.919c7.793 0 14.319 6.51 14.319 14.318 0 7.896-6.424 14.319-14.319 14.319zm126.488-48.637h-31.724l13.725-11.252c.88-.456 1.955-.373 2.761.229.042.032.084.063.127.094zm-1.562 90.684v-22.047h24.52v22.047zm155.241 71.498v-70.583h27.294v70.583z"/><path d="m308.641 245.91c2.233 3.317 6.336 5.046 10.271 4.26 4.258-.851 7.575-4.502 7.994-8.827.858-8.854-9.891-14.326-16.554-8.489-3.726 3.262-4.447 8.945-1.711 13.056z"/></g></g></svg>